<svg id="logo" data-name="logo" xmlns="http://www.w3.org/2000/svg" viewBox="0 0 80 70" height="{{ include.height | default: 70 }}" width="{{ include.width | default: 80 }}">
  <defs>
    <style>#yellow{fill:#ff0;}#magenta{fill:#f0f;}#cyan{fill:aqua;}#black{fill:#231f20;}</style>
  </defs>
  <title>logo</title>
  <path id="yellow" d="M68.66,22.75a6.56,6.56,0,0,0-3.72-2.07C64.81,14.84,61.76,10,56.07,6.52c-5-3-11.79-4.72-19-4.72s-14,1.67-19,4.72c-4.75,2.86-7.66,6.75-8.57,11.35a6.69,6.69,0,0,0-6.87,9.07L8,41l0,0a9.38,9.38,0,0,0,7.32,5.78l.09.23a13.27,13.27,0,0,1,.76,7,2.22,2.22,0,0,0,2.19,2.57h6.48V59.5a3.83,3.83,0,0,0,7.56.9l0-.21.21,1.26a4,4,0,0,0,7.91.06L40.86,60a4.24,4.24,0,0,0,8-2V56.59h8.11a2,2,0,0,0,1.83-2.8,9.21,9.21,0,0,1-.14-7L59,45.66a12.27,12.27,0,0,0,7.63-7.11l0-.09L70,29.34A6.56,6.56,0,0,0,68.66,22.75ZM39.13,49.65l-2-.75-3,1.48a1.27,1.27,0,0,1-1.56-1.92l3.25-4.17a1.57,1.57,0,0,1,2.58.09l2.29,3.3A1.31,1.31,0,0,1,39.13,49.65ZM65.44,27.73,62.2,36.8a7.55,7.55,0,0,1-1.45,2.26,7.43,7.43,0,0,1-7.55,2.09l-8.91-2.58a11.23,11.23,0,0,1-1.92-.75l-2.15-1.08a7.34,7.34,0,0,0-6.69.06l-1.91,1a11.44,11.44,0,0,1-2.16.86L18,41.91a4.58,4.58,0,0,1-4.36-1,4.69,4.69,0,0,1-1.16-1.66l-5.41-14a1.84,1.84,0,0,1,.41-2,1.81,1.81,0,0,1,2-.48l.07,0,22.37,7.78.08,0a16.62,16.62,0,0,0,9.75,0l21.64-5.17a1.8,1.8,0,0,1,.6,0,1.77,1.77,0,0,1,1.48,2.35Z"></path>
  <path id="magenta" d="M71.5,26.14a6.59,6.59,0,0,0-3.72-2.07c-.13-5.84-3.19-10.73-8.87-14.16-5-3-11.79-4.72-19-4.72s-14,1.68-19,4.72c-4.74,2.86-7.66,6.75-8.56,11.35a6.7,6.7,0,0,0-6.88,9.08l5.42,14v0a9.4,9.4,0,0,0,7.32,5.78l.1.23a13.37,13.37,0,0,1,.76,7A2.22,2.22,0,0,0,21.22,60H27.7v2.91a3.83,3.83,0,0,0,7.56.9l.05-.21.21,1.26a4,4,0,0,0,7.91.06l.27-1.47a4.23,4.23,0,0,0,7.94-2V60h8.12a2,2,0,0,0,1.82-2.79,9.28,9.28,0,0,1-.13-7.06l.43-1.08a12.23,12.23,0,0,0,7.62-7.11l0-.09,3.25-9.11A6.57,6.57,0,0,0,71.5,26.14ZM42,53l-2-.75-3,1.48a1.27,1.27,0,0,1-1.56-1.92l3.25-4.16a1.56,1.56,0,0,1,2.58.08l2.29,3.3A1.31,1.31,0,0,1,42,53ZM68.27,31.12,65,40.19a7.33,7.33,0,0,1-1.44,2.26A7.44,7.44,0,0,1,56,44.54L47.13,42a11.8,11.8,0,0,1-1.92-.76l-2.15-1.08a7.36,7.36,0,0,0-6.7.07l-1.9,1a11.27,11.27,0,0,1-2.17.86L20.83,45.31a4.6,4.6,0,0,1-4.36-1,4.69,4.69,0,0,1-1.16-1.66l-5.41-14a1.9,1.9,0,0,1,2.39-2.48l.07,0,22.36,7.78.09,0a16.7,16.7,0,0,0,9.75,0L66.2,28.81a1.74,1.74,0,0,1,.59,0,1.72,1.72,0,0,1,1.13.58A1.7,1.7,0,0,1,68.27,31.12Z"></path>
  <path id="cyan" d="M75.54,23.4a6.57,6.57,0,0,0-3.72-2.08C71.7,15.49,68.64,10.6,63,7.16c-5-3-11.79-4.72-19-4.72s-14,1.68-19,4.72c-4.75,2.87-7.66,6.75-8.57,11.35a6.7,6.7,0,0,0-6.87,9.08l5.41,14,0,0a9.38,9.38,0,0,0,7.32,5.78l.09.24a13.25,13.25,0,0,1,.76,7,2.23,2.23,0,0,0,2.2,2.57h6.47v2.91a3.83,3.83,0,0,0,7.56.9l.05-.21.21,1.27a4,4,0,0,0,7.92.06l.27-1.48a4.23,4.23,0,0,0,7.94-2V57.23h8.12a2,2,0,0,0,1.82-2.79,9.17,9.17,0,0,1-.13-7l.42-1.08a12.24,12.24,0,0,0,7.63-7.12l0-.08L76.84,30A6.56,6.56,0,0,0,75.54,23.4ZM46,50.29l-2-.75L41,51a1.27,1.27,0,0,1-1.55-1.92l3.24-4.17a1.56,1.56,0,0,1,2.58.08l2.3,3.3A1.31,1.31,0,0,1,46,50.29ZM72.32,28.38l-3.24,9.06a7.7,7.7,0,0,1-1.44,2.27,7.49,7.49,0,0,1-7.56,2.09l-8.91-2.58a11.23,11.23,0,0,1-1.92-.75l-2.14-1.08a7.33,7.33,0,0,0-6.7.06l-1.9,1a11.31,11.31,0,0,1-2.17.87L24.87,42.56a4.64,4.64,0,0,1-5.52-2.69l-5.4-14a1.89,1.89,0,0,1,2.39-2.47l.06,0,22.37,7.78.08,0a16.62,16.62,0,0,0,9.75,0l21.65-5.17a1.53,1.53,0,0,1,.59-.05A1.8,1.8,0,0,1,72,26.6,1.74,1.74,0,0,1,72.32,28.38Z"></path>
  <path id="black" d="M72.7,24A6.59,6.59,0,0,0,69,22c-.13-5.84-3.19-10.73-8.87-14.16-5-3-11.79-4.72-19-4.72s-14,1.68-19,4.72c-4.74,2.86-7.66,6.75-8.56,11.35a6.7,6.7,0,0,0-6.88,9.08l5.42,14v0a9.4,9.4,0,0,0,7.32,5.78l.1.23a13.37,13.37,0,0,1,.76,7,2.22,2.22,0,0,0,2.19,2.57H28.9v2.91a3.83,3.83,0,0,0,7.56.9l0-.21.21,1.26a4,4,0,0,0,7.91.06l.27-1.47a4.23,4.23,0,0,0,7.94-2V57.88H61a2,2,0,0,0,1.82-2.79A9.28,9.28,0,0,1,62.65,48L63.08,47a12.23,12.23,0,0,0,7.62-7.11l0-.09L74,30.64A6.57,6.57,0,0,0,72.7,24ZM43.16,50.94l-2-.75-3,1.48a1.27,1.27,0,0,1-1.56-1.92l3.25-4.16a1.56,1.56,0,0,1,2.58.08L44.7,49A1.31,1.31,0,0,1,43.16,50.94ZM69.47,29l-3.24,9.07a7.33,7.33,0,0,1-1.44,2.26,7.44,7.44,0,0,1-7.55,2.09l-8.91-2.57a11.8,11.8,0,0,1-1.92-.76L44.26,38a7.36,7.36,0,0,0-6.7.07l-1.9,1a11.27,11.27,0,0,1-2.17.86L22,43.21a4.6,4.6,0,0,1-4.36-1,4.69,4.69,0,0,1-1.16-1.66l-5.41-14A1.9,1.9,0,0,1,13.49,24l.07,0,22.36,7.78.09,0a16.7,16.7,0,0,0,9.75,0L67.4,26.71a1.74,1.74,0,0,1,.59,0,1.72,1.72,0,0,1,1.13.58A1.7,1.7,0,0,1,69.47,29Z"></path>
</svg>
