<?xml version="1.0" encoding="UTF-8"?>
<svg width="83px" height="24px" viewBox="0 0 83 24" version="1.1" xmlns="http://www.w3.org/2000/svg" xmlns:xlink="http://www.w3.org/1999/xlink">
    <!-- Generator: Sketch 47.1 (45422) - http://www.bohemiancoding.com/sketch -->
    <title>logo-robin</title>
    <desc>Created with Sketch.</desc>
    <defs>
        <linearGradient x1="49.9946256%" y1="-4.32282336%" x2="49.9946256%" y2="455.490863%" id="linearGradient-1">
            <stop stop-color="#E9334B" offset="0%"></stop>
            <stop stop-color="#F05D44" offset="99.53%"></stop>
        </linearGradient>
        <linearGradient x1="50.0056768%" y1="-38.0064078%" x2="50.0056768%" y2="103.775617%" id="linearGradient-2">
            <stop stop-color="#E9334B" offset="0%"></stop>
            <stop stop-color="#F05D44" offset="99.53%"></stop>
        </linearGradient>
        <linearGradient x1="50.0001748%" y1="-0.979023816%" x2="50.0001748%" y2="103.158599%" id="linearGradient-3">
            <stop stop-color="#E9334B" offset="0%"></stop>
            <stop stop-color="#F05D44" offset="99.53%"></stop>
        </linearGradient>
        <linearGradient x1="50.0046025%" y1="-44.2602813%" x2="50.0046025%" y2="108.055902%" id="linearGradient-4">
            <stop stop-color="#E9334B" offset="0%"></stop>
            <stop stop-color="#F05D44" offset="99.53%"></stop>
        </linearGradient>
        <linearGradient x1="49.9977127%" y1="-40.9398191%" x2="49.9977127%" y2="107.870478%" id="linearGradient-5">
            <stop stop-color="#E9334B" offset="0%"></stop>
            <stop stop-color="#F05D44" offset="99.53%"></stop>
        </linearGradient>
        <linearGradient x1="49.9981379%" y1="-0.998379658%" x2="49.9981379%" y2="105.640035%" id="linearGradient-6">
            <stop stop-color="#E9334B" offset="0%"></stop>
            <stop stop-color="#F05D44" offset="99.53%"></stop>
        </linearGradient>
    </defs>
    <g id="Clean/Modern" stroke="none" stroke-width="1" fill="none" fill-rule="evenodd">
        <g id="about" transform="translate(-344.000000, -1378.000000)" fill-rule="nonzero">
            <g id="Robin" transform="translate(320.000000, 1248.000000)">
                <g id="logo-robin" transform="translate(24.000000, 130.000000)">
                    <circle id="Oval" fill="url(#linearGradient-1)" cx="64.13664" cy="2.68032" r="2.67936"></circle>
                    <path d="M36.60768,8.42112 C35.97696,7.77408 35.22624,7.27104 34.35648,6.912 C33.48672,6.55392 32.54304,6.3744 31.52544,6.3744 C30.20736,6.3744 28.95168,6.63456 27.7584,7.15488 C26.56512,7.6752 25.51776,8.39232 24.61536,9.30528 C23.712,10.2192 22.98528,11.2944 22.43328,12.53184 C21.88128,13.76928 21.58656,15.09312 21.55008,16.50336 C21.5232,17.544 21.68256,18.50976 22.03008,19.39968 C22.37664,20.29056 22.872,21.05952 23.51424,21.70656 C24.15744,22.35456 24.91296,22.8576 25.78272,23.21568 C26.65248,23.57376 27.5952,23.75328 28.61376,23.75328 C30.024,23.75328 31.33152,23.49312 32.53632,22.9728 C33.74016,22.45248 34.78272,21.73632 35.66208,20.8224 C36.54144,19.90944 37.2336,18.84 37.73952,17.61408 C38.24544,16.38816 38.51712,15.05856 38.5536,13.62432 C38.58144,12.56064 38.42112,11.58912 38.0736,10.71072 C37.72704,9.83232 37.2384,9.06912 36.60768,8.42112 Z M33.38304,16.41792 C33.11136,17.0544 32.76288,17.60352 32.33472,18.06528 C31.90656,18.528 31.42848,18.88608 30.9024,19.14048 C30.37536,19.39584 29.83392,19.52256 29.27904,19.52256 C28.2384,19.52256 27.46656,19.18752 26.96352,18.51648 C26.46048,17.8464 26.22336,16.95552 26.25216,15.84576 C26.27232,15.08256 26.41152,14.38368 26.67072,13.7472 C26.92992,13.11168 27.2736,12.5568 27.70272,12.0816 C28.13088,11.60736 28.60896,11.24352 29.136,10.98912 C29.66304,10.73472 30.20448,10.608 30.75936,10.608 C31.82304,10.608 32.6064,10.94304 33.10944,11.61408 C33.61248,12.28512 33.8496,13.17504 33.8208,14.2848 C33.79872,15.07104 33.65376,15.78144 33.38304,16.41792 Z" id="Shape" fill="url(#linearGradient-2)"></path>
                    <path d="M55.5072,8.328 C55.13184,7.78368 54.45024,7.26528 53.93952,6.97536 C53.29824,6.61152 52.70496,6.37344 51.43104,6.37344 C50.15712,6.37344 49.51968,6.62112 48.8304,6.87552 C48.14208,7.13088 47.43456,7.64736 46.74816,8.24832 L48.55584,0.00096 L43.76928,0.00096 L38.89344,22.26336 C40.99488,23.25792 43.84128,23.66208 46.50048,23.66208 C47.86464,23.66208 49.12224,23.51808 50.38272,23.04384 C51.64416,22.5696 52.67232,21.78336 53.65632,20.86944 C54.63936,19.95552 55.37472,18.84576 55.97568,17.5392 C56.57568,16.23264 56.89824,14.74656 56.94048,13.08096 C56.96544,12.10944 56.84448,11.21952 56.57568,10.41024 C56.30784,9.6 55.95552,8.97888 55.5072,8.328 Z M51.7152,15.94848 C51.5232,16.62144 51.12,17.28384 50.6784,17.80416 C50.2368,18.32448 49.7376,18.82656 49.10496,19.11552 C48.47328,19.40544 47.74464,19.56384 46.98144,19.56384 C46.30752,19.56384 45.74592,19.5024 45.37824,19.4352 C45.05856,19.37664 44.73312,19.30272 44.30976,19.17504 L45.40896,14.24928 C45.64416,13.20864 46.06464,12.34656 46.67232,11.66496 C47.28,10.98336 48.12768,10.6416 49.16832,10.6416 C50.04672,10.6416 50.84448,11.06688 51.24768,11.61312 C51.74976,12.2928 51.88416,12.8976 51.96096,13.62528 C52.05024,14.46048 51.92352,15.21696 51.7152,15.94848 Z" id="Shape" fill="url(#linearGradient-3)"></path>
                    <polygon id="Shape" fill="url(#linearGradient-4)" points="57.25536 23.10624 62.04288 23.10624 65.59872 6.92928 60.81216 6.92928"></polygon>
                    <path d="M81.36864,7.9008 C80.59392,6.99936 79.44288,6.54816 77.91648,6.54816 C76.87584,6.54816 75.95232,6.7104 75.14592,7.03392 C74.33952,7.35744 73.55712,7.91232 72.79584,8.69952 L73.05024,6.93024 L68.47104,6.93024 L64.9152,23.10624 L69.66816,23.10624 L71.49504,14.80416 C71.60064,14.27232 71.7696,13.76352 72.00288,13.27776 C72.2352,12.792 72.51168,12.36384 72.83424,11.99424 C73.15584,11.62464 73.53312,11.32992 73.96704,11.11008 C74.4,10.89024 74.88288,10.7808 75.41568,10.7808 C76.13184,10.7808 76.64736,10.98912 76.96032,11.4048 C77.27328,11.82048 77.42112,12.37632 77.40384,13.0704 C77.3952,13.39488 77.352,13.72992 77.27328,14.07648 L75.28896,23.10624 L80.11104,23.10624 L82.2912,13.2096 C82.34496,12.93216 82.38624,12.65376 82.41696,12.37728 C82.44672,12.09984 82.46592,11.82144 82.47264,11.54496 C82.51104,10.0176 82.14336,8.8032 81.36864,7.9008 Z" id="Shape" fill="url(#linearGradient-5)"></path>
                    <path d="M20.6736,2.18304 C20.04768,1.52736 19.27776,1.00896 18.36288,0.6288 C17.44608,0.2496 16.50336,0 15.36864,0 L2.57184,0 L4.1856,3.6672 L0,23.10624 L5.2512,23.10624 L7.15488,14.50368 L10.4688,14.50368 C11.87424,14.50368 12.79968,15.19776 13.2672,16.5072 C13.4352,16.97856 13.5552,17.47968 13.79712,18.51552 C14.30208,20.67936 14.40192,23.10624 14.40192,23.10624 L19.50816,23.10624 C19.50816,23.10624 19.43808,20.81184 18.864,18.36384 C18.14496,15.3024 17.33856,13.59072 17.33856,13.59072 C17.33856,13.59072 19.1616,12.69504 19.82208,12.13056 C20.48256,11.56704 21.04416,10.8816 21.50784,10.0752 C21.97152,9.26976 22.26048,8.32608 22.37664,7.2432 C22.4688,6.25344 22.36512,5.32608 22.06464,4.46304 C21.76224,3.59904 21.29856,2.83872 20.6736,2.18304 Z M14.2464,3.91488 C14.66304,3.91488 15.26016,4.04256 15.60768,4.21536 C15.9552,4.38816 16.25088,4.62432 16.49376,4.92288 C16.73664,5.2224 16.91616,5.57376 17.03232,5.976 C17.14752,6.3792 17.18304,6.79968 17.136,7.23648 C17.08896,7.72032 16.94496,8.16864 16.70112,8.58336 C16.45824,8.99808 16.16736,9.3552 15.83232,9.65376 C15.49632,9.95328 15.12,10.18944 14.7024,10.36224 C14.52,10.43808 14.33952,10.49376 14.16192,10.536 C13.9776,10.57152 13.79616,10.59168 13.61664,10.59168 L8.0208,10.59168 L9.55296,3.91296 L14.2464,3.91488 Z" id="Shape" fill="url(#linearGradient-6)"></path>
                </g>
            </g>
        </g>
    </g>
</svg>